<svg width="100" height="100" viewBox="0 0 100 100" fill="none" xmlns="http://www.w3.org/2000/svg">
<rect width="100" height="100" rx="23" fill="#5000B9"/>
<path d="M79.9036 39.8595C79.9036 39.8595 77.2202 38.5946 74.4357 39.4155C72.354 40.0254 70.0702 41.5944 68.7716 44.8534C66.2668 51.1034 68.4349 62.0038 67.5873 62.0038C66.7397 62.0038 64.0694 51.9592 60.4988 41.4984C56.9282 31.039 53.8392 20.1735 48.2645 21.0497C43.3192 21.824 44.8549 34.212 46.7903 45.8155C48.5441 56.3316 50.5731 66.1783 49.4137 66.1783C47.3422 66.1826 40.5435 37.1114 33.5765 38.2147C26.6096 39.3195 35.5836 71.3498 33.6981 71.4109C32.1477 71.4604 28.3487 51.9127 22.7096 52.8107C18.4363 53.4919 22.244 68.6992 22.4197 72.9406C22.4622 74.0046 22.7945 76.0002 21.1885 76.0002H18V78.9563H23.2205C24.2936 78.9068 25.1427 78.4993 25.5716 77.4513C27.0209 73.9027 23.2132 58.8235 24.1047 58.7143C24.7167 58.6401 26.0371 63.2294 27.8803 68.4183C29.7219 73.6073 31.5695 78.9884 35.0683 78.9884C42.615 78.9884 34.9175 49.5707 36.4137 49.5707C37.2042 49.5707 39.3621 55.5471 41.7352 62.1043C44.6368 70.1155 48.1752 79 52.4485 79C57.5475 79 55.8859 67.5232 54.3092 56.5281C52.9418 47.0119 51.3388 38.0692 52.1937 38.0692C54.1189 38.0706 61.386 78.9854 70.1141 78.9854C74.4869 78.9854 74.5367 70.4313 74.5367 61.2091C74.5367 54.7306 73.9921 48.8284 78.0854 47.4093C80.0324 46.7339 82 47.9303 82 47.9303L79.9036 39.8595V39.8595Z" fill="#E8F524"/>
</svg>
