<svg width="100" height="100" viewBox="0 0 100 100" fill="none" xmlns="http://www.w3.org/2000/svg">
<path d="M77.7533 0H22.2467C9.96017 0 0 9.96017 0 22.2467V77.7533C0 90.0398 9.96017 100 22.2467 100H77.7533C90.0398 100 100 90.0398 100 77.7533V22.2467C100 9.96017 90.0398 0 77.7533 0Z" fill="url(#paint0_linear)"/>
<path d="M46.9467 87.5466C43.9634 86.48 43.3234 85.03 42.1 76.5333C40.6767 66.6566 40.3667 60.5433 41.19 58.6066C42.2834 56.04 45.25 54.5833 49.4 54.5666C53.5167 54.55 56.51 56.02 57.61 58.6066C58.4367 60.54 58.1267 66.6566 56.7034 76.5333C55.7367 83.4333 55.2034 85.1766 53.87 86.3499C52.0367 87.9733 49.4367 88.4233 46.97 87.5499L46.9467 87.5466ZM34.2034 77.4133C23.9034 72.3466 17.3034 63.7733 14.9034 52.3666C14.3034 49.4233 14.2034 42.4 14.77 39.7C16.27 32.45 19.1367 26.78 23.9034 21.7666C30.77 14.5266 39.6034 10.7 49.4367 10.7C59.17 10.7 67.97 14.4566 74.67 21.48C79.77 26.78 82.6367 32.39 84.1034 39.78C84.6034 42.24 84.6034 48.9466 84.1367 51.7133C82.6034 60.46 77.7367 68.4266 70.6367 73.7799C68.1034 75.6933 61.9034 79.0333 60.9034 79.0333C60.5367 79.0333 60.5034 78.6533 60.67 77.1166C60.97 74.65 61.27 74.1366 62.67 73.5499C64.9034 72.6166 68.7034 69.91 71.0367 67.57C75.07 63.57 78.0367 58.3366 79.4034 52.8366C80.27 49.4033 80.17 41.77 79.2034 38.2366C76.17 27.0033 67.0034 18.27 55.77 15.9366C52.5034 15.27 46.57 15.27 43.27 15.9366C31.9034 18.27 22.5034 27.4366 19.6367 38.97C18.87 42.1033 18.87 49.7366 19.6367 52.87C21.5367 60.5033 26.47 67.5033 32.9367 71.67C34.2034 72.5033 35.7367 73.37 36.37 73.6366C37.77 74.2366 38.07 74.7366 38.3367 77.2033C38.5034 78.7033 38.47 79.1366 38.1034 79.1366C37.87 79.1366 36.17 78.4033 34.37 77.5366L34.2034 77.4133ZM34.3367 63.8533C30.87 61.0866 27.8034 56.18 26.5367 51.3666C25.77 48.46 25.77 42.9333 26.57 40.0333C28.67 32.2066 34.4367 26.14 42.4367 23.29C45.17 22.3233 51.2367 22.1066 54.6034 22.85C66.2034 25.4333 74.4367 37.05 72.8367 48.5733C72.2034 53.2166 70.6034 57.03 67.77 60.5733C66.37 62.3633 62.97 65.3666 62.37 65.3666C62.27 65.3666 62.17 64.2333 62.17 62.8533V60.3333L63.9034 58.2666C70.4367 50.44 69.97 39.5066 62.8367 32.3333C60.07 29.54 56.87 27.9 52.7367 27.1433C50.07 26.65 49.5034 26.65 46.7034 27.11C42.4534 27.8033 39.16 29.45 36.2367 32.3433C29.07 39.4433 28.6034 50.4333 35.1367 58.2666L36.8567 60.3333V62.8666C36.8567 64.2666 36.7467 65.4 36.61 65.4C36.4767 65.4 35.51 64.7333 34.4767 63.9L34.3367 63.8533ZM45.9034 50.2433C42.9367 48.8633 41.3367 46.26 41.3034 42.8666C41.3034 39.8166 43.0034 37.1566 45.9367 35.6C47.8034 34.62 51.1034 34.62 52.97 35.6066C55.0034 36.6633 56.67 38.7133 57.3034 40.8533C59.2367 47.4266 52.27 53.1866 45.97 50.2433H45.9034Z" fill="white"/>
<path d="M49.9634 51.5367C54.5547 51.5367 58.2767 47.8147 58.2767 43.2234C58.2767 38.632 54.5547 34.91 49.9634 34.91C45.372 34.91 41.65 38.632 41.65 43.2234C41.65 47.8147 45.372 51.5367 49.9634 51.5367Z" fill="white"/>
<path d="M50.76 54.7567C51.3367 54.8334 52.4834 54.9834 53.5434 55.3234C54.61 55.6567 55.5767 56.18 56.33 56.7167C57.0634 57.25 57.5967 57.8034 57.93 58.4767C58.2634 59.15 58.43 59.95 58.53 61.26C58.5967 62.5734 58.5967 64.3934 58.2967 67.7934C57.9967 71.1834 57.3967 76.1534 56.93 79.3367C56.4634 82.5367 56.13 83.9367 55.6967 84.97C55.2634 86.0367 54.6967 86.7367 54.0634 87.2367C53.43 87.7367 52.6967 88.0367 51.9967 88.2034C51.2967 88.37 50.6634 88.37 50.0634 88.37C49.4634 88.37 48.8967 88.37 48.13 88.2034C47.3634 88.0367 46.3634 87.7367 45.63 87.1367C44.8634 86.5367 44.3634 85.67 43.9634 84.5367C43.5634 83.4034 43.2634 82.0367 42.8634 79.3034C42.4634 76.57 41.93 72.5034 41.5967 69.4034C41.2634 66.3034 41.13 64.17 41.1034 62.7367C41.07 61.3034 41.1367 60.5934 41.3034 59.9034C41.47 59.2367 41.7367 58.6034 42.1034 58.07C42.47 57.5367 42.95 57.07 43.4367 56.7034C43.9134 56.3367 44.4034 56.07 44.99 55.8634C45.57 55.63 46.2667 55.43 47.1234 55.2634C47.99 55.0967 48.99 54.93 49.5034 54.8634C50.0167 54.7867 50.0167 54.7867 50.59 54.8634L50.76 54.7567Z" fill="white"/>
<defs>
<linearGradient id="paint0_linear" x1="49.8967" y1="101.27" x2="49.05" y2="-4.68755e-06" gradientUnits="userSpaceOnUse">
<stop stop-color="#822CBE"/>
<stop offset="1" stop-color="#D772FB"/>
</linearGradient>
</defs>
</svg>
