<svg width="100" height="100" viewBox="0 0 100 100" fill="none" xmlns="http://www.w3.org/2000/svg">
<path d="M76.5485 67.6708C71.6913 68.418 69.7864 68.7978 69.7864 68.7978C69.7864 68.7978 67.5324 53.5831 56.2623 53.5831C47.8097 53.5831 43.8651 60.3452 43.8651 66.5437C43.8651 84.1309 74.1066 81.0071 88.9456 77.2504L90.0726 80.6314C74.8579 99.7906 55.1352 101.481 41.6111 99.2271C28.087 96.973 2.16569 83.4489 1.03868 51.8926C-0.0883285 20.3363 23.5789 1.1771 50.0637 0.0500855C76.5485 -1.07693 96.8347 16.9553 98.5252 40.059C99.8776 58.542 83.874 66.5437 76.5485 67.6708Z" fill="#003DAD"/>
<path d="M49.5002 82.3219C51.942 86.2664 56.8258 94.1555 57.9528 94.719C59.0798 95.2825 76.5485 89.6475 80.493 84.0124C72.0404 84.7638 55.1352 84.5759 49.5002 82.3219Z" fill="#5C9DFF"/>
<path d="M38.7936 68.7977C35.6004 74.6206 29.7775 86.8299 30.341 90.2109C32.0315 93.0285 45.3678 94.9068 52.3177 95.2825C47.8097 89.0839 39.9206 73.8693 38.7936 68.7977Z" fill="#1269FF"/>
<path d="M45.5556 52.4562C37.6665 59.7818 27.1853 77.025 25.8329 87.3935C20.1979 84.0125 11.1818 75.5599 7.23724 62.5993C14.5628 57.5277 32.0315 51.3292 45.5556 52.4562Z" fill="#9EC6FF"/>
<path d="M21.3249 15.8282C32.0315 19.2093 53.8955 30.8175 62.4608 50.2021C43.8651 44.567 19.0709 49.6386 6.11025 57.5277C2.16571 38.932 13.4358 22.5903 21.3249 15.8282Z" fill="#D1E3FF"/>
<path d="M73.1674 63.7262C80.493 63.1627 93.4536 56.9641 93.4536 41.186C93.4536 21.4552 75.4214 4.55811 53.4447 4.55811C36.5396 4.55811 29.214 9.62966 25.8329 12.4472C37.1031 16.3917 53.4447 27.6618 60.2068 37.2414C66.9689 46.821 72.6039 58.6546 73.1674 63.7262Z" fill="white"/>
</svg>
