<svg width="100" height="100" viewBox="0 0 100 100" fill="none" xmlns="http://www.w3.org/2000/svg">
<path fill-rule="evenodd" clip-rule="evenodd" d="M34.8642 0H65.1355C75.1746 0 80.1937 -1.86265e-07 85.5974 1.7085C91.4967 3.85576 96.1439 8.50294 98.2914 14.4025C99.9997 19.8058 99.9997 24.8251 99.9997 34.8642V65.1355C99.9997 75.1746 99.9997 80.1937 98.2914 85.5974C96.1439 91.4967 91.4967 96.1439 85.5974 98.291C80.1937 99.9997 75.1746 99.9997 65.1355 99.9997H34.8642C24.8251 99.9997 19.8058 99.9997 14.4025 98.291C8.50294 96.1439 3.85576 91.4967 1.7085 85.5974C-1.86265e-07 80.1937 0 75.1746 0 65.1355V34.8642C0 24.8251 -1.86265e-07 19.8058 1.7085 14.4025C3.85576 8.50294 8.50294 3.85576 14.4025 1.7085C19.8058 -1.86265e-07 24.8251 0 34.8642 0Z" fill="url(#paint0_linear)"/>
<path fill-rule="evenodd" clip-rule="evenodd" d="M50.0487 6.54272C74.0763 6.54272 93.5545 26.0018 93.5545 50.0058C93.5545 74.01 74.0763 93.469 50.0487 93.469C26.021 93.469 6.54279 74.01 6.54279 50.0058C6.54279 26.0018 26.021 6.54272 50.0487 6.54272Z" fill="url(#paint1_linear)"/>
<path fill-rule="evenodd" clip-rule="evenodd" d="M68.1515 74.7922L60.8572 64.6843C65.4383 61.3342 68.4142 55.9233 68.4142 49.8171C68.4142 39.6474 60.1619 31.4032 49.982 31.4032C39.8022 31.4032 31.5498 39.6474 31.5498 49.8171C31.5498 55.95 34.5519 61.3817 39.1671 64.7283L31.8673 74.844C24.1075 69.2329 19.0582 60.1113 19.0582 49.8102C19.0582 32.7529 32.8996 18.9253 49.9739 18.9253C67.0481 18.9253 80.8895 32.7529 80.8895 49.8102C80.8895 60.0797 75.8709 69.1769 68.1515 74.7922ZM50.0424 42.3571C54.15 42.3571 57.48 45.6838 57.48 49.7873C57.48 53.8909 54.15 57.2175 50.0424 57.2175C45.9347 57.2175 42.6048 53.8909 42.6048 49.7873C42.6048 45.6838 45.9347 42.3571 50.0424 42.3571Z" fill="url(#paint2_linear)"/>
<defs>
<linearGradient id="paint0_linear" x1="0" y1="0" x2="0" y2="99.9997" gradientUnits="userSpaceOnUse">
<stop stop-color="#00CCBF"/>
<stop offset="1" stop-color="#00B265"/>
</linearGradient>
<linearGradient id="paint1_linear" x1="6.54279" y1="6.54272" x2="6.54279" y2="93.469" gradientUnits="userSpaceOnUse">
<stop stop-color="#151515"/>
<stop offset="1" stop-color="#353535"/>
</linearGradient>
<linearGradient id="paint2_linear" x1="19.0582" y1="18.9253" x2="19.0582" y2="74.844" gradientUnits="userSpaceOnUse">
<stop offset="0.3" stop-color="white"/>
<stop offset="1" stop-color="#9CC0B7"/>
</linearGradient>
</defs>
</svg>
