<svg width="100" height="100" viewBox="0 0 100 100" fill="none" xmlns="http://www.w3.org/2000/svg">
<path d="M7.022 49.5048V28.7962C7.00189 25.631 8.33697 23.3816 11.052 21.7665L45.5987 1.29933C48.4855 -0.424061 51.168 -0.437984 54.0718 1.28695L88.7671 21.8207C91.4248 23.3878 92.7398 25.6883 92.7429 28.7436L92.746 70.1932C92.746 73.2408 91.4774 75.5614 88.8104 77.1332L54.0022 97.7551C51.2175 99.4042 48.5814 99.4568 45.7968 97.786L11.0752 77.2523C8.29985 75.6217 6.97559 73.3136 7.00034 70.0895L7.022 49.5048ZM58.7036 49.2294L58.6943 39.7229C58.6789 37.9361 57.6331 36.7866 56.0334 36.666C54.1677 36.5113 52.8156 37.6963 52.7661 39.6053L52.7414 45.8399C52.7166 47.1858 51.8379 47.8866 50.6219 47.6189C49.6195 47.3993 49.3534 46.683 49.3596 45.7548L49.3688 37.4936C49.3735 36.3272 49.0548 35.3371 48.0152 34.6966C45.8989 33.394 43.4453 34.7275 43.3772 37.2647L43.3555 43.968C43.3401 45.1963 42.7831 45.7842 41.7373 45.8213C40.6544 45.8584 39.9629 45.2102 39.8902 43.9649L39.8747 41.6443C39.8206 40.3541 39.1662 39.4785 37.9781 39.0762C35.9669 38.3708 34.0254 39.7074 33.9867 41.8702L33.962 47.7953C33.9372 48.872 33.3014 49.4615 32.3252 49.4908C31.3227 49.5218 30.6885 48.9741 30.5461 47.9237C30.5044 47.6174 30.5461 47.2972 30.509 46.9909C30.3234 45.4516 29.0362 44.2805 27.5696 44.299C26.0845 44.3145 24.6767 45.4902 24.6396 47.0001L24.6427 56.3519C24.6844 57.899 26.0876 59.0546 27.5635 59.053C29.0641 59.0484 30.311 57.9175 30.5028 56.3612C30.5492 56.0023 30.41 55.5521 30.5802 55.2891C30.9205 54.7662 31.3444 54.118 31.8719 53.9478C32.3299 53.7993 33.1173 54.0933 33.4963 54.463C33.8367 54.7925 33.9419 55.484 33.9496 56.0224L33.9805 65.218C34.0115 67.4581 36.3196 68.838 38.2998 67.8386C39.4261 67.2693 39.8995 66.3287 39.8871 65.0416L39.8747 52.8819C39.8778 50.9915 40.4409 50.1437 41.6724 50.1623C42.8481 50.1777 43.3741 50.9667 43.3741 52.7891L43.3818 58.2439C43.419 60.1375 44.5978 61.338 46.3274 61.372C48.1096 61.3921 49.3348 60.1344 49.3688 58.1697L49.3812 53.9618C49.406 52.687 50.0403 51.9862 51.086 52.0063C52.1318 52.0264 52.7445 52.721 52.7615 53.9943L52.7816 58.8256C52.8404 60.5738 54.1182 61.765 55.7937 61.7387C57.5217 61.7108 58.6897 60.4918 58.7067 58.5874L58.7145 49.2279L58.7036 49.2294ZM68.1188 52.5339L68.1142 47.2399C68.0925 45.4407 66.9756 44.2572 65.2878 44.1923C63.5242 44.1227 62.1937 45.1483 62.1721 46.9352L62.1922 58.1434C62.2386 59.8807 63.668 61.024 65.2986 60.9311C67.0003 60.8321 68.091 59.644 68.1173 57.8324L68.1204 52.5385L68.1188 52.5339ZM71.5873 54.0066L71.5904 55.4051C71.6677 57.0048 72.763 58.1124 74.3348 58.1991C76.001 58.2919 77.3206 57.2786 77.4784 55.6496C77.5814 54.5659 77.5803 53.475 77.4753 52.3915C77.3206 50.7826 75.9283 49.6935 74.3503 49.7894C72.811 49.8822 71.6801 51.0301 71.5873 52.605C71.5594 53.0691 71.5842 53.5379 71.5842 54.0035L71.5873 54.0066Z" fill="#F25C31"/>
<path d="M58.7021 49.2464L58.6944 58.5982C58.6743 60.5011 57.5094 61.7232 55.7813 61.7495C54.1059 61.7774 52.842 60.5861 52.7692 58.8365L52.7491 54.0051C52.7337 52.7334 52.121 52.0342 51.0737 52.0171C50.0264 52.0001 49.3936 52.6978 49.3689 53.9726L49.3565 58.1805C49.3225 60.1298 48.0972 61.403 46.315 61.3829C44.5855 61.3628 43.4066 60.1452 43.3695 58.2548L43.3772 52.7999C43.3741 50.9775 42.8667 50.1886 41.6755 50.1731C40.4456 50.1576 39.8809 51.0023 39.8778 52.8928L39.8902 65.0524C39.9026 66.3396 39.4292 67.2801 38.303 67.8495C36.3228 68.8488 34.0177 67.4689 33.9837 65.2288L33.9527 56.0332C33.945 55.498 33.8413 54.8034 33.4994 54.4738C33.1158 54.1056 32.3314 53.8133 31.8751 53.9587C31.3491 54.1134 30.9252 54.7755 30.5833 55.2999C30.4286 55.5629 30.5493 56.0116 30.5059 56.372C30.3126 57.9268 29.0672 59.0608 27.5666 59.0639C26.0907 59.0685 24.686 57.8928 24.6458 56.3628L24.6427 47.011C24.6829 45.5011 26.0861 44.3284 27.5728 44.3098C29.0425 44.2944 30.3265 45.4639 30.5121 47.0017C30.5493 47.308 30.5075 47.6282 30.5493 47.9345C30.704 48.9834 31.3228 49.5311 32.3283 49.5017C33.303 49.4707 33.9403 48.8829 33.9651 47.8061L33.9899 41.881C34.0301 39.7183 35.9701 38.3847 37.9812 39.0871C39.1693 39.5048 39.8376 40.3649 39.8778 41.6551L39.8933 43.9757C39.9645 45.2056 40.6436 45.8569 41.7405 45.8321C42.7847 45.795 43.3416 45.2056 43.3587 43.9788L43.3803 37.2755C43.4499 34.7384 45.902 33.4048 48.0183 34.7074C49.061 35.3479 49.3797 36.338 49.372 37.5045L49.3627 45.7656C49.358 46.6907 49.6257 47.4085 50.6251 47.6298C51.8426 47.899 52.7213 47.1966 52.7445 45.8507L52.7692 39.6162C52.8188 37.7071 54.1709 36.5221 56.0366 36.6768C57.6331 36.7975 58.6774 37.9454 58.6975 39.7337L58.7067 49.248L58.7021 49.2464ZM68.1173 52.5524L68.1127 57.8464C68.0848 59.6564 66.9834 60.8476 65.294 60.9451C63.6634 61.0379 62.2309 59.8962 62.1876 58.1573L62.1675 46.9491C62.2092 45.1623 63.5242 44.1366 65.2832 44.2062C66.9849 44.2727 68.0879 45.4562 68.1096 47.2538L68.1173 52.5478V52.5524ZM71.5858 54.0221L71.5904 52.6236C71.6801 51.0456 72.828 49.9008 74.3534 49.808C75.9469 49.7121 77.3268 50.8012 77.4784 52.4101C77.5805 53.4868 77.5867 54.5759 77.4815 55.6681C77.3237 57.2972 76.0041 58.3089 74.3379 58.2176C72.7662 58.131 71.6693 57.0218 71.5935 55.4237C71.5688 54.9596 71.5889 54.4909 71.5889 54.0252L71.5858 54.0221Z" fill="#FEFEFE"/>
</svg>
