<svg width="100" height="100" viewBox="0 0 100 100" fill="none" xmlns="http://www.w3.org/2000/svg">
<path d="M49.6608 21.3798C46.3154 21.3798 43.6046 18.6691 43.6046 15.3236V8.0562C43.6046 4.71076 46.3154 2 49.6608 2C53.0063 2 55.717 4.71076 55.717 8.0562V15.3236C55.717 18.6691 53.0063 21.3798 49.6608 21.3798Z" fill="#F9A825"/>
<path d="M49.6608 72.252C46.3154 72.252 43.6046 69.5412 43.6046 66.1958V34.7035C43.6046 31.3581 46.3154 28.6473 49.6608 28.6473C53.0063 28.6473 55.717 31.3581 55.717 34.7035V66.1958C55.717 69.5412 53.0063 72.252 49.6608 72.252Z" fill="#F9A825"/>
<path d="M49.6608 98.8993C46.3154 98.8993 43.6046 96.1885 43.6046 92.8431V85.5756C43.6046 82.2302 46.3154 79.5194 49.6608 79.5194C53.0063 79.5194 55.717 82.2302 55.717 85.5756V92.8431C55.717 96.1885 53.0063 98.8993 49.6608 98.8993Z" fill="#F9A825"/>
<path d="M27.8585 79.5194C24.5131 79.5194 21.8023 76.8086 21.8023 73.4632V66.1957C21.8023 62.8503 24.5131 60.1395 27.8585 60.1395C31.204 60.1395 33.9147 62.8503 33.9147 66.1957V73.4632C33.9147 76.8086 31.204 79.5194 27.8585 79.5194Z" fill="#E53935"/>
<path d="M71.4632 40.7597C68.1177 40.7597 65.407 38.049 65.407 34.7035V27.4361C65.407 24.0906 68.1177 21.3799 71.4632 21.3799C74.8086 21.3799 77.5194 24.0906 77.5194 27.4361V34.7035C77.5194 38.049 74.8086 40.7597 71.4632 40.7597Z" fill="#43A047"/>
<path d="M27.8585 52.8721C24.5131 52.8721 21.8023 50.1614 21.8023 46.8159V25.0136C21.8023 21.6682 24.5131 18.9574 27.8585 18.9574C31.204 18.9574 33.9147 21.6682 33.9147 25.0136V46.8159C33.9147 50.1614 31.204 52.8721 27.8585 52.8721Z" fill="#E53935"/>
<path d="M71.4632 81.9418C68.1177 81.9418 65.407 79.2311 65.407 75.8856V54.0833C65.407 50.7379 68.1177 48.0271 71.4632 48.0271C74.8086 48.0271 77.5194 50.7379 77.5194 54.0833V75.8856C77.5194 79.2311 74.8086 81.9418 71.4632 81.9418Z" fill="#43A047"/>
<path d="M6.0562 60.1395C2.71076 60.1395 0 57.4287 0 54.0833V46.8158C0 43.4704 2.71076 40.7596 6.0562 40.7596C9.40165 40.7596 12.1124 43.4704 12.1124 46.8158V54.0833C12.1124 57.4287 9.40165 60.1395 6.0562 60.1395Z" fill="#1565C0"/>
<path d="M93.2655 60.1395C89.92 60.1395 87.2093 57.4287 87.2093 54.0833V46.8158C87.2093 43.4704 89.92 40.7596 93.2655 40.7596C96.6109 40.7596 99.3217 43.4704 99.3217 46.8158V54.0833C99.3217 57.4287 96.6109 60.1395 93.2655 60.1395Z" fill="#1E88E5"/>
</svg>
