<svg width="100" height="100" viewBox="0 0 100 100" fill="none" xmlns="http://www.w3.org/2000/svg">
<circle cx="49.5" cy="49.5" r="48.5" fill="white"/>
<path d="M24.7068 75.2932C18.2331 68.8206 14.2295 59.878 14.2295 50C14.2295 40.122 18.2331 31.1794 24.7068 24.7068L27.8875 27.8874C22.2293 33.5467 18.7286 41.3645 18.7286 50C18.7286 58.6355 22.2293 66.4534 27.8875 72.1126L24.7068 75.2932ZM34.4906 65.5094C30.5212 61.54 28.0662 56.0574 28.0662 50C28.0662 43.9427 30.5212 38.46 34.4906 34.4906L37.6723 37.6723C34.5174 40.8273 32.5653 45.1852 32.5653 50C32.5653 54.8149 34.5174 59.1727 37.6723 62.3277L34.4906 65.5094ZM62.3277 62.3277C65.4827 59.1727 67.4348 54.8149 67.4348 50C67.4348 45.1852 65.4827 40.8273 62.3277 37.6723L65.5095 34.4906C69.4788 38.46 71.9339 43.9427 71.9339 50C71.9339 56.0574 69.4788 61.54 65.5095 65.5094L62.3277 62.3277ZM75.2933 75.2932L72.1126 72.1126C77.7708 66.4534 81.2714 58.6355 81.2714 50C81.2714 41.3645 77.7708 33.5467 72.1126 27.8874L75.2933 24.7068C81.7669 31.1794 85.7706 40.122 85.7706 50C85.7706 59.878 81.7669 68.8206 75.2933 75.2932ZM50 4.55909C24.9037 4.55909 4.55912 24.9037 4.55912 50C4.55912 70.0728 17.575 87.1051 35.6272 93.1197L47.2967 58.11C43.9009 56.9788 41.4512 53.7757 41.4512 50C41.4512 45.2783 45.2783 41.4512 50 41.4512C54.7218 41.4512 58.5488 45.2783 58.5488 50C58.5488 53.7757 56.0991 56.9788 52.7034 58.11L64.3729 93.1197C82.4251 87.1051 95.441 70.0728 95.441 50C95.441 24.9037 75.0964 4.55909 50 4.55909ZM55.5897 95.0985C53.567 93.5274 51.6086 91.7969 49.7368 89.908C47.927 91.7798 46.0403 93.4985 44.0946 95.0599C46.0274 95.3104 47.9988 95.4409 50 95.4409C51.8922 95.4409 53.7575 95.3243 55.5897 95.0985ZM52.5461 86.8012C55.0386 89.6072 57.7141 92.0858 60.5062 94.2188C60.6925 94.1738 60.8776 94.1289 61.0627 94.0828L56.2361 82.0152C55.061 83.6912 53.8282 85.2879 52.5461 86.8012ZM49.9337 83.6558C51.4919 81.646 52.9592 79.497 54.3172 77.2175L50 66.4255L45.6304 77.3491C46.966 79.5794 48.4054 81.6845 49.9337 83.6558ZM39.3922 94.1931C42.0869 92.1319 44.6726 89.7517 47.0891 87.0634C45.8541 85.6496 44.6661 84.1588 43.5328 82.5942L38.9373 94.0828C39.0882 94.1203 39.2402 94.1567 39.3922 94.1931ZM50 99.9444C22.4166 99.9444 0.0567627 77.5835 0.0567627 50C0.0567627 22.4165 22.4166 0.0556641 50 0.0556641C77.5835 0.0556641 99.9444 22.4165 99.9444 50C99.9444 77.5835 77.5835 99.9444 50 99.9444Z" fill="#F57E20"/>
<path d="M24.7068 75.2932L24.7464 75.2536C18.2834 68.7907 14.2851 59.8619 14.2851 50C14.2851 40.1381 18.2823 31.2093 24.7464 24.7464L24.7068 24.7068L24.6661 24.7464L27.8478 27.9281L27.8874 27.8874L27.8478 27.8478C22.1789 33.5178 18.6729 41.3495 18.6729 50C18.6729 58.6505 22.1789 66.4822 27.8478 72.1522L27.8874 72.1126L27.8478 72.0719L24.6661 75.2536L24.7068 75.2932L24.7464 75.2536L24.7068 75.2932L24.7464 75.3339L27.9677 72.1126L27.9281 72.0719C22.2785 66.4234 18.7853 58.6205 18.7853 50C18.7853 41.3795 22.2785 33.5766 27.9281 27.9281L27.9677 27.8874L24.7068 24.6265L24.6661 24.6661C18.1828 31.1494 14.1727 40.107 14.1727 50C14.1727 59.893 18.1828 68.8506 24.6661 75.3339L24.7068 75.3735L24.7464 75.3339L24.7068 75.2932ZM34.4906 65.5094L34.5302 65.4698C30.5704 61.5111 28.1218 56.0413 28.1218 50C28.1218 43.9587 30.5704 38.4889 34.5302 34.5302L34.4906 34.4906L34.4499 34.5302L37.6316 37.7119L37.6723 37.6723L37.6316 37.6316C34.467 40.7973 32.5096 45.1702 32.5096 50C32.5096 54.8298 34.467 59.2027 37.6316 62.3684L37.6723 62.3277L37.6316 62.2881L34.4499 65.4698L34.4906 65.5094L34.5302 65.4698L34.4906 65.5094L34.5302 65.5501L37.7515 62.3277L37.7119 62.2881C34.5666 59.1428 32.622 54.7988 32.622 50C32.622 45.2012 34.5666 40.8572 37.7119 37.7119L37.7515 37.6723L34.4906 34.4103L34.4499 34.4499C30.4709 38.43 28.0094 43.9277 28.0094 50C28.0094 56.0723 30.4709 61.57 34.4499 65.5501L34.4906 65.5897L34.5302 65.5501L34.4906 65.5094ZM62.3277 62.3277L62.3684 62.3684C65.533 59.2027 67.4904 54.8298 67.4904 50C67.4904 45.1702 65.533 40.7973 62.3684 37.6316L62.3277 37.6723L62.3684 37.7119L65.5501 34.5302L65.5094 34.4906L65.4698 34.5302C69.4296 38.4889 71.8782 43.9587 71.8782 50C71.8782 56.0413 69.4296 61.5111 65.4698 65.4698L65.5094 65.5094L65.5501 65.4698L62.3684 62.2881L62.3277 62.3277L62.3684 62.3684L62.3277 62.3277L62.2881 62.3684L65.5094 65.5897L65.5501 65.5501C69.5291 61.57 71.9906 56.0723 71.9906 50C71.9906 43.9277 69.5291 38.43 65.5501 34.4499L65.5094 34.4103L62.2485 37.6723L62.2881 37.7119C65.4334 40.8572 67.378 45.2012 67.378 50C67.378 54.7988 65.4334 59.1428 62.2881 62.2881L62.2485 62.3277L62.2881 62.3684L62.3277 62.3277ZM75.2932 75.2932L75.3339 75.2536L72.1522 72.0719L72.1126 72.1126L72.1522 72.1522C77.8211 66.4822 81.3271 58.6505 81.3271 50C81.3271 41.3495 77.8211 33.5178 72.1522 27.8478L72.1126 27.8874L72.1522 27.9281L75.3339 24.7464L75.2932 24.7068L75.2536 24.7464C81.7166 31.2093 85.7138 40.1381 85.7138 50C85.7138 59.8619 81.7166 68.7907 75.2536 75.2536L75.2932 75.2932L75.3339 75.2536L75.2932 75.2932L75.3339 75.3339C81.8172 68.8506 85.8273 59.893 85.8273 50C85.8273 40.107 81.8172 31.1494 75.3339 24.6661L75.2932 24.6265L72.0323 27.8874L72.0719 27.9281C77.7215 33.5766 81.2147 41.3795 81.2147 50C81.2147 58.6205 77.7215 66.4234 72.0719 72.0719L72.0323 72.1126L75.2932 75.3735L75.3339 75.3339L75.2932 75.2932ZM50 4.55908V4.50235C24.8726 4.50235 4.50235 24.8726 4.50235 50C4.50235 70.0985 17.5353 87.15 35.6089 93.1732L35.6625 93.1903L47.3684 58.0747L47.3149 58.0565C43.9405 56.9328 41.5079 53.7511 41.5079 50C41.5079 47.6552 42.4583 45.5319 43.9951 43.9951C45.5319 42.4583 47.6541 41.5079 50 41.5079C52.3448 41.5079 54.4681 42.4583 56.0049 43.9951C57.5417 45.5319 58.4921 47.6541 58.4921 50C58.4921 53.7511 56.0595 56.9328 52.6851 58.0565L52.6316 58.0747L64.3375 93.1903L64.3911 93.1732C82.4658 87.15 95.4976 70.0985 95.4976 50C95.4976 24.8726 75.1274 4.50235 50 4.50235V4.61473C62.5332 4.61473 73.8784 9.69499 82.0923 17.9077C90.305 26.1216 95.3853 37.4668 95.3853 50C95.3853 70.0482 82.3844 87.0591 64.3557 93.0661L64.3729 93.1196L64.4264 93.1015L52.7568 58.0918L52.7033 58.11L52.7215 58.1635C56.1398 57.0248 58.6045 53.8014 58.6055 50C58.6045 45.2472 54.7528 41.3955 50 41.3945C45.2472 41.3955 41.3955 45.2472 41.3945 50C41.3955 53.8014 43.8602 57.0248 47.2785 58.1635L47.2967 58.11L47.2432 58.0918L35.5736 93.1015L35.6271 93.1196L35.6443 93.0661C17.6156 87.0591 4.61473 70.0482 4.61473 50C4.61473 37.4668 9.69499 26.1216 17.9077 17.9077C26.1216 9.69499 37.4668 4.61473 50 4.61473V4.55908ZM55.5897 95.0985L55.6239 95.0546C53.6034 93.4846 51.647 91.7551 49.7763 89.8684L49.7357 89.8266L49.6961 89.8684C47.8885 91.7391 46.0028 93.4557 44.0593 95.0161L43.9565 95.0985L44.0871 95.1156C46.0231 95.3671 47.9966 95.4976 50 95.4976C51.8943 95.4976 53.7618 95.3799 55.5961 95.1552L55.7309 95.1381L55.6239 95.0546L55.5897 95.0985L55.5822 95.0428C53.7532 95.2676 51.89 95.3853 50 95.3853C48.0009 95.3853 46.0327 95.2547 44.1021 95.0043L44.0946 95.0599L44.1299 95.1038C46.0766 93.5402 47.9666 91.8204 49.7774 89.9465L49.7367 89.908L49.6971 89.9476C51.57 91.8386 53.5306 93.5702 55.5544 95.1434L55.5897 95.0985L55.5822 95.0428L55.5897 95.0985ZM52.546 86.8012L52.5032 86.8397C54.9979 89.6468 57.6766 92.1286 60.472 94.2626L60.4934 94.2787L60.519 94.2733C60.7053 94.2295 60.8915 94.1834 61.0766 94.1374L61.1387 94.1214L56.25 81.8985L56.1901 81.9831C55.0161 83.6569 53.7842 85.2526 52.5032 86.7658L52.4711 86.8033L52.5032 86.8397L52.546 86.8012L52.5888 86.8386C53.872 85.3232 55.1059 83.7243 56.2821 82.0473L56.2361 82.0152L56.1836 82.0366L61.0103 94.1032L61.0627 94.0828L61.0488 94.0283C60.8637 94.0743 60.6785 94.1192 60.4934 94.1631L60.5062 94.2187L60.5405 94.1738C57.7504 92.043 55.0781 89.5666 52.5878 86.7648L52.546 86.8012L52.5888 86.8386L52.546 86.8012ZM49.9336 83.6558L49.9786 83.6901C51.5379 81.6792 53.0062 79.527 54.3654 77.2453L54.3793 77.2217L50 66.2735L45.5672 77.3545L45.5822 77.378C46.9189 79.6104 48.3594 81.7177 49.8898 83.6901L49.9336 83.7479L49.9786 83.6901L49.9336 83.6558L49.9786 83.6216C48.4514 81.6524 47.0131 79.5484 45.6785 77.3202L45.6304 77.3491L45.6828 77.3705L50 66.5764L54.2648 77.2378L54.3172 77.2175L54.268 77.1886C52.912 79.466 51.4458 81.6139 49.8898 83.6216L49.9336 83.6558L49.9786 83.6216L49.9336 83.6558ZM39.3921 94.1931L39.4264 94.238C42.1233 92.1747 44.7121 89.7913 47.1308 87.1008L47.165 87.0644L47.1318 87.027C45.8979 85.6143 44.711 84.1246 43.5777 82.5621L43.5178 82.4786L38.8613 94.1214L38.9234 94.1374C39.0753 94.1749 39.2273 94.2113 39.3793 94.2487L39.405 94.2541L39.4264 94.238L39.3921 94.1931L39.405 94.1385C39.253 94.1021 39.1021 94.0657 38.9512 94.0283L38.9373 94.0828L38.9897 94.1032L43.5852 82.6156L43.5327 82.5942L43.4867 82.6274C44.6222 84.1931 45.8101 85.686 47.0473 87.1008L47.089 87.0634L47.0473 87.0259C44.6329 89.711 42.0494 92.0901 39.3579 94.1492L39.3921 94.1931L39.405 94.1385L39.3921 94.1931ZM50 99.9443V99.8876C36.2243 99.8876 23.7521 94.3044 14.7239 85.2761C5.6967 76.2479 0.112372 63.7757 0.112372 50C0.112372 36.2243 5.6967 23.7521 14.7239 14.7239C23.7521 5.69563 36.2243 0.112372 50 0.112372C63.7757 0.112372 76.2479 5.69563 85.2761 14.7239C94.3044 23.7521 99.8876 36.2243 99.8876 50C99.8876 63.7757 94.3044 76.2479 85.2761 85.2761C76.2479 94.3044 63.7757 99.8876 50 99.8876V100C77.6145 100 100 77.6145 100 50C100 22.3855 77.6145 0 50 0C22.3855 0 0 22.3855 0 50C0 77.6145 22.3855 100 50 100V99.9443Z" fill="white"/>
</svg>
