<svg width="100" height="100" viewBox="0 0 100 100" fill="none" xmlns="http://www.w3.org/2000/svg">
<path fill-rule="evenodd" clip-rule="evenodd" d="M100 50C100 77.6148 77.6148 100 50 100C22.3852 100 0 77.6148 0 50C0 22.3852 22.3852 0 50 0C77.6148 0 100 22.3852 100 50Z" fill="#F43E37"/>
<path fill-rule="evenodd" clip-rule="evenodd" d="M11.1111 49.6528C11.1111 28.3668 28.3668 11.1111 49.6528 11.1111C70.9388 11.1111 88.1945 28.3668 88.1945 49.6528H78.5591C78.5591 33.6883 65.6173 20.7465 49.6528 20.7465C33.6883 20.7465 20.7466 33.6883 20.7466 49.6528C20.7466 65.6172 33.6883 78.559 49.6528 78.559V88.1944C28.3668 88.1944 11.1111 70.9387 11.1111 49.6528ZM49.6528 72.7778C36.8812 72.7778 26.5278 62.4243 26.5278 49.6528C26.5278 36.8812 36.8812 26.5278 49.6528 26.5278C62.4244 26.5278 72.7778 36.8812 72.7778 49.6528H64.3687C64.3687 41.5254 57.7802 34.9368 49.6528 34.9368C41.5254 34.9368 34.9369 41.5254 34.9369 49.6528C34.9369 57.7801 41.5254 64.3687 49.6528 64.3687V72.7778Z" fill="white"/>
</svg>
