<svg width="100" height="100" viewBox="0 0 100 100" fill="none" xmlns="http://www.w3.org/2000/svg">
<circle cx="50" cy="50" r="50" fill="white"/>
<path d="M20.5883 84.3139C20.5883 84.3139 19.6079 48.0394 20.5883 44.1179C21.5686 40.1963 25.9804 33.3336 32.8432 33.3336C41.721 33.3335 45.0981 40.6865 45.0981 46.0786C45.0981 51.4708 41.6667 56.8629 38.2353 57.8433C34.804 58.8237 30.3922 58.3335 30.3922 58.3335C30.3922 58.3335 28.268 63.8891 27.9412 66.6668C38.7255 69.1179 47.0588 63.2355 50 59.3139C53.4314 62.7453 60.7843 68.1375 71.5687 66.6668L69.6079 58.3335C64.2157 58.8237 53.6275 56.961 54.4118 45.5884C55.1961 34.2159 63.8889 33.0067 68.1373 33.8237C71.4053 34.4773 78.1373 37.4512 78.9216 44.1178C79.7059 50.7845 79.5752 62.2551 79.4118 67.157H87.7451C87.7451 67.157 88.2353 48.5296 87.7451 42.6473C87.2549 36.7649 81.7702 25.0002 67.6471 25.0002C56.8628 25.0002 53.9216 29.412 50 33.3336C47.8759 30.2289 41.2745 24.2158 31.8628 25.0002C20.0981 25.9806 12.2549 35.7845 12.2549 43.1375V74.51C9.5 71.0001 4.90198 60.5 4.90198 50.4904C4.90198 29.5001 20.5883 5 50 5C84 5 95.0981 32.8827 95.0981 52.9414C95.0981 73.0001 76.5 94.2751 50.9804 95.0983C37.5 95.5331 27 89.5001 20.5883 84.3139Z" fill="#F4842D"/>
</svg>
