<svg width="100" height="100" viewBox="0 0 100 100" fill="none" xmlns="http://www.w3.org/2000/svg">
<path fill-rule="evenodd" clip-rule="evenodd" d="M95.3036 97.6075C77.9806 89.3197 60.6576 105.895 43.3329 97.6075V14.7245C60.6559 23.0123 77.9789 6.43672 95.3036 14.7245V97.6075Z" fill="#CE262F"/>
<path fill-rule="evenodd" clip-rule="evenodd" d="M67.1946 53.1604C67.7947 53.0205 68.3932 52.8772 68.9933 52.7338C71.2249 52.1998 71.4379 50.7732 71.4412 49.101V40.0931C71.4412 38.1342 71.2265 36.9449 68.9933 37.479C68.3932 37.6223 67.7947 37.7657 67.1946 37.9056V53.1604ZM67.1946 61.9499V83.5968C64.0045 84.3442 60.8145 85.0233 57.6227 85.3219V31.2781C62.1568 30.8532 66.6908 29.6605 71.2249 28.594C79.3564 26.6931 81.0807 30.8856 81.0841 37.4875V48.311C81.0858 55.0255 78.4249 59.2948 71.7286 60.8732C70.2173 61.2247 68.7059 61.595 67.1946 61.9499Z" fill="white"/>
<path fill-rule="evenodd" clip-rule="evenodd" d="M57.6745 85.3693C57.6745 85.3693 56.8698 89.9747 43.3319 97.6073V52.8307L57.6745 85.3693Z" fill="#992326"/>
<path fill-rule="evenodd" clip-rule="evenodd" d="M57.6266 85.2755C40.0838 76.9877 22.5428 93.5633 5 85.2755V2.39248C22.5428 10.6803 40.0838 -5.89531 57.6266 2.39248V85.2755Z" fill="#CE262F"/>
<path fill-rule="evenodd" clip-rule="evenodd" d="M29.0554 39.2547C29.6792 39.1114 30.3031 38.9629 30.9269 38.8162C32.8676 38.3555 33.5912 37.4647 33.5878 34.9223V27.5866C33.5895 25.2626 33.1584 24.6329 31.2143 25.0919C30.4941 25.2626 29.7756 25.4332 29.0554 25.5987V39.2547ZM29.0554 71.2882C25.8654 72.0254 22.6753 72.6925 19.4836 72.9894V18.9456C24.5214 18.4764 29.5592 17.0874 34.597 15.9527C40.4277 14.6166 43.3743 17.6778 43.376 23.4726V32.1153C43.3794 36.6064 40.9298 38.8128 39.1311 39.9475C40.6424 40.241 43.2357 41.7716 43.2323 45.7849V64.1624C43.2323 66.4865 43.66 67.466 44.0235 68.0939V68.4574C40.8335 68.6843 37.6434 69.3071 34.4533 70.0289C33.9513 69.5597 33.5895 68.4812 33.5878 66.0855V50.3222C33.5844 47.7831 33.013 47.2575 31.0706 47.7166C30.3994 47.8752 29.7266 48.0339 29.0554 48.1892V71.2882Z" fill="white"/>
</svg>
