<svg width="100" height="100" viewBox="0 0 100 100" fill="none" xmlns="http://www.w3.org/2000/svg">
<rect width="100" height="100" rx="23" fill="#FFA500"/>
<path d="M23.75 87.5C29.9632 87.5 35 82.4632 35 76.25C35 70.0368 29.9632 65 23.75 65C17.5368 65 12.5 70.0368 12.5 76.25C12.5 82.4632 17.5368 87.5 23.75 87.5Z" fill="white"/>
<path d="M12.5 53.75C21.4511 53.75 30.0355 57.3058 36.3649 63.6351C42.6942 69.9645 46.25 78.5489 46.25 87.5H57.5C57.5 75.5653 52.7589 64.1193 44.3198 55.6802C35.8807 47.2411 24.4347 42.5 12.5 42.5V53.75Z" fill="white"/>
<path d="M12.5 31.25C19.8869 31.25 27.2014 32.7049 34.0259 35.5318C40.8505 38.3586 47.0515 42.5019 52.2748 47.7252C57.4981 52.9485 61.6414 59.1495 64.4682 65.9741C67.295 72.7986 68.75 80.1131 68.75 87.5H80C80 69.5979 72.8884 52.429 60.2297 39.7703C47.571 27.1116 30.4021 20 12.5 20V31.25Z" fill="white"/>
</svg>
