<?xml version="1.0" standalone="no"?>
<!DOCTYPE svg PUBLIC "-//W3C//DTD SVG 20010904//EN"
 "http://www.w3.org/TR/2001/REC-SVG-20010904/DTD/svg10.dtd">
<svg version="1.0" xmlns="http://www.w3.org/2000/svg"
 width="824.000000pt" height="824.000000pt" viewBox="0 0 824.000000 824.000000"
 preserveAspectRatio="xMidYMid meet">
<metadata>
Created by potrace 1.14, written by Peter Selinger 2001-2017
</metadata>
<g transform="translate(0.000000,824.000000) scale(0.100000,-0.100000)"
fill="#000000" stroke="none">
<path d="M915 8184 c-192 -30 -371 -115 -519 -245 -129 -114 -246 -312 -291
-493 l-25 -99 0 -3227 0 -3227 25 -99 c45 -181 162 -379 291 -493 101 -90 237
-168 364 -210 164 -53 12 -51 3390 -51 3378 0 3226 -2 3390 51 350 115 605
409 672 774 19 103 19 6407 0 6510 -67 365 -322 659 -672 774 -164 53 -10 51
-3400 50 -2627 -1 -3150 -3 -3225 -15z m5709 -3756 c-156 -777 -284 -1419
-284 -1425 0 -10 181 -13 873 -13 481 0 876 -2 878 -5 3 -2 -25 -152 -62 -332
-38 -181 -68 -329 -69 -330 0 -5 -2567 -3 -2572 2 -3 3 123 643 279 1423 155
779 283 1423 283 1429 0 11 -183 13 -917 11 l-917 -3 -87 -440 c-49 -242 -91
-450 -94 -462 l-5 -23 625 0 c526 0 625 -2 625 -14 0 -7 -29 -153 -65 -322
-36 -170 -65 -312 -65 -316 0 -5 -280 -8 -623 -8 l-622 0 -119 -597 c-66 -329
-124 -617 -129 -641 l-9 -42 -409 0 c-341 0 -409 2 -409 14 0 7 126 643 280
1412 154 770 280 1405 280 1412 0 9 -107 12 -500 12 -275 0 -500 -1 -500 -2 0
-9 -540 -2704 -560 -2796 l-12 -52 -409 0 c-225 0 -409 3 -408 8 0 4 127 644
282 1422 l283 1415 -561 5 -560 5 3 25 c5 34 121 601 128 623 5 16 167 17
3218 17 l3213 0 -283 -1412z"/>
</g>
</svg>
