<svg width="100" height="100" viewBox="0 0 100 100" fill="none" xmlns="http://www.w3.org/2000/svg">
<circle cx="50" cy="50" r="49" fill="white"/>
<path d="M49.9977 0.164795C22.4685 0.164795 0.15065 22.4821 0.15065 50.0112C0.15065 77.5416 22.4685 99.8571 49.9977 99.8571C77.5298 99.8571 99.8453 77.5416 99.8453 50.0112C99.8453 22.4838 77.5298 0.167176 49.9971 0.167176L49.9977 0.164795V0.164795ZM72.8572 72.0577C71.9643 73.5219 70.0477 73.9862 68.5834 73.0874C56.8798 65.9386 42.1465 64.3196 24.7953 68.2839C23.1233 68.6648 21.4566 67.6172 21.0757 65.9446C20.6929 64.2719 21.7364 62.6053 23.4126 62.2243C42.4007 57.8844 58.6881 59.7541 71.8274 67.7838C73.2917 68.6827 73.756 70.5934 72.8572 72.0577V72.0577ZM78.9584 58.4833C77.8334 60.3136 75.4405 60.891 73.6131 59.766C60.2143 51.5285 39.7899 49.1434 23.9417 53.9541C21.8864 54.5749 19.7155 53.4166 19.0917 51.3648C18.4727 49.3094 19.6316 47.1428 21.6834 46.5178C39.7864 41.0249 62.2917 43.6856 77.6786 53.141C79.506 54.266 80.0834 56.6588 78.9584 58.4838V58.4833ZM79.4822 44.3499C63.4167 34.8077 36.9108 33.9303 21.5721 38.5856C19.109 39.3327 16.5042 37.9422 15.7578 35.4791C15.0114 33.0148 16.4006 30.4118 18.8655 29.663C36.4733 24.3178 65.7441 25.3505 84.2405 36.3309C86.4608 37.6458 87.187 40.5071 85.8715 42.7196C84.562 44.935 81.6929 45.6654 79.4846 44.3499H79.4822Z" fill="#1ED760"/>
</svg>
